<?xml version="1.0" ?><!DOCTYPE svg  PUBLIC '-//W3C//DTD SVG 1.1//EN'  'http://www.w3.org/Graphics/SVG/1.1/DTD/svg11.dtd'><svg enable-background="new 0 0 75 75" height="75px" id="Layer_1" version="1.1" viewBox="0 0 75 75" width="75px" xml:space="preserve" xmlns="http://www.w3.org/2000/svg" xmlns:xlink="http://www.w3.org/1999/xlink"><g><g><g><g><path d="M22.093,31.824c-1.26-1.262-3.305-1.262-4.564,0L15.452,33.9l-0.002-0.002l-4.566,4.564      c-1.26,1.262-3.305,1.264-4.564,0l5.574,5.576c1.26,1.262,3.305,1.26,4.564-0.002l2.074-2.074h0.002l4.566-4.566      c1.26-1.26,3.305-1.26,4.566,0.002L22.093,31.824z" fill="#F26606"/><path d="M31.913,26.585c-1.262-1.26-3.305-1.26-4.566,0.002l-2.076,2.074V28.66l-3.17,3.172l5.566,5.566      l5.254-5.236c1.26-1.262,3.305-1.262,4.564-0.002L31.913,26.585z" fill="#1BC1A9"/><path d="M34.837,29.511l-2.924-2.926c-1.262-1.26-3.305-1.26-4.566,0.002l-1.877,1.877      c0.506,0.652,1.057,1.299,1.674,1.916c1.361,1.361,2.832,2.441,4.305,3.248l1.473-1.467c0.764-0.766,1.816-1.059,2.809-0.896      C35.476,30.683,35.183,30.095,34.837,29.511z" fill="#0CAFAF"/></g><g><path d="M52.907,31.824c1.26-1.262,3.303-1.262,4.564-0.002l2.076,2.078l0.002-0.002l4.566,4.564      c1.26,1.262,3.305,1.262,4.564,0l-5.574,5.574c-1.26,1.262-3.305,1.262-4.564,0l0.674,0.678l0,0l-7.316-7.316      c-1.262-1.262-3.307-1.262-4.566,0L52.907,31.824z" fill="#F26606"/><path d="M43.089,26.587c1.26-1.262,3.305-1.262,4.564-0.002l2.076,2.076l0,0l3.17,3.17l-5.566,5.566      l-5.254-5.238c-1.262-1.26-3.305-1.26-4.564,0L43.089,26.587z" fill="#1BC1A9"/><path d="M40.163,29.509l2.926-2.922c1.26-1.262,3.305-1.262,4.564-0.002l1.877,1.879      c-0.508,0.654-1.057,1.299-1.674,1.916c-1.361,1.361-2.832,2.441-4.305,3.248l-1.473-1.469      c-0.766-0.764-1.816-1.059-2.809-0.895C39.524,30.683,39.817,30.097,40.163,29.509z" fill="#0CAFAF"/></g></g><g><g><path d="M35.45,15.602c-4.63-4.749-10.623-6.415-13.388-3.719c-0.959,0.937-1.395,2.283-1.371,3.833      c2.907,0.119,6.504,1.891,9.523,4.99c3.021,3.097,4.702,6.738,4.747,9.647c1.548,0.062,2.905-0.336,3.866-1.273      C41.591,26.383,40.079,20.35,35.45,15.602z" fill="#EAB818"/><path d="M21.132,13.228c-0.352,0.766-0.527,1.641-0.5,2.611c2.908,0.082,6.527,1.809,9.586,4.869      c3.061,3.059,4.787,6.678,4.869,9.586c0.969,0.027,1.846-0.15,2.609-0.5c1.363-3.057-0.365-8.096-4.418-12.148      S24.188,11.865,21.132,13.228z" fill="#ED9015"/><g><path d="M22.653,11.439c0.078-0.049,0.162-0.096,0.244-0.141C22.815,11.343,22.731,11.39,22.653,11.439z" fill="#F26606"/><path d="M20.679,14.875c-0.027,0.26-0.041,0.527-0.039,0.801C20.638,15.402,20.651,15.134,20.679,14.875z" fill="#F26606"/><path d="M20.987,13.542c0.082-0.215,0.176-0.422,0.285-0.619C21.163,13.121,21.069,13.328,20.987,13.542z" fill="#F26606"/><path d="M21.415,12.679c0.15-0.234,0.318-0.459,0.514-0.658C21.733,12.222,21.565,12.445,21.415,12.679z" fill="#F26606"/><path d="M20.7,14.662c0.043-0.314,0.113-0.617,0.205-0.906C20.813,14.044,20.745,14.347,20.7,14.662z" fill="#F26606"/><path d="M23.519,11.013c0.07-0.025,0.139-0.059,0.211-0.082C23.657,10.955,23.589,10.988,23.519,11.013z" fill="#F26606"/><path d="M40.269,25.113c-0.004,0-0.008-0.002-0.014-0.002c0.004,0.055,0.006,0.111,0.006,0.166       C40.261,25.222,40.269,25.169,40.269,25.113z" fill="#F26606"/><path d="M25.813,10.669c0-0.004,0-0.008,0-0.012c-0.057-0.002-0.107,0.008-0.164,0.008       C25.702,10.666,25.759,10.667,25.813,10.669z" fill="#F26606"/><path d="M21.995,11.955c-0.01,0.008-0.02,0.016-0.029,0.023c-0.004,0.002-0.004,0.004-0.006,0.006       C21.97,11.974,21.983,11.966,21.995,11.955z" fill="#F26606"/><path d="M24.638,10.724c0.07-0.01,0.145-0.012,0.215-0.02C24.782,10.712,24.708,10.714,24.638,10.724z" fill="#F26606"/><path d="M40.2,26.289c0.012-0.07,0.014-0.145,0.021-0.215C40.214,26.144,40.21,26.218,40.2,26.289z" fill="#F26606"/><path d="M39.913,27.408c0.025-0.07,0.059-0.139,0.082-0.211C39.972,27.269,39.938,27.337,39.913,27.408z" fill="#F26606"/><path d="M38.94,28.966c0.004-0.002,0.004-0.004,0.006-0.004c0.01-0.01,0.016-0.023,0.025-0.033       C38.96,28.941,38.952,28.955,38.94,28.966z" fill="#F26606"/><path d="M39.487,28.271c0.049-0.078,0.096-0.16,0.141-0.242C39.581,28.111,39.536,28.193,39.487,28.271z" fill="#F26606"/><path d="M38.905,28.996c-0.201,0.197-0.424,0.365-0.658,0.516C38.481,29.361,38.704,29.193,38.905,28.996z" fill="#F26606"/><path d="M37.171,30.021c-0.289,0.09-0.592,0.16-0.906,0.205C36.579,30.181,36.882,30.111,37.171,30.021z" fill="#F26606"/><path d="M35.251,30.287c0.275,0.002,0.541-0.014,0.799-0.041C35.792,30.273,35.524,30.289,35.251,30.287z" fill="#F26606"/><path d="M38.003,29.654c-0.197,0.109-0.404,0.203-0.619,0.283C37.599,29.857,37.806,29.763,38.003,29.654z" fill="#F26606"/><path d="M30.218,20.708c-3.055-3.057-6.668-4.783-9.574-4.867c0.088,2.904,1.814,6.516,4.869,9.572       c3.055,3.055,6.668,4.781,9.572,4.869C35.001,27.376,33.274,23.763,30.218,20.708z" fill="#F26606"/><path d="M23.931,16.541c0.779,2.102,2.189,4.311,4.166,6.287c1.979,1.979,4.188,3.389,6.291,4.168       c-0.783-2.102-2.191-4.311-4.17-6.287C28.241,18.73,26.032,17.32,23.931,16.541z" fill="#DB4D07"/></g></g><g><path d="M39.612,15.537c4.689-4.688,10.703-6.277,13.436-3.547c0.947,0.949,1.363,2.301,1.32,3.85      c-2.91,0.082-6.527,1.809-9.586,4.869c-3.059,3.059-4.787,6.678-4.869,9.586c-1.551,0.043-2.9-0.375-3.848-1.322      C33.335,26.242,34.921,20.228,39.612,15.537z" fill="#EAB818"/><path d="M53.868,13.228c0.35,0.766,0.527,1.643,0.5,2.611c-2.91,0.082-6.527,1.809-9.586,4.869      c-3.059,3.059-4.787,6.678-4.869,9.586c-0.969,0.027-1.846-0.15-2.609-0.5c-1.365-3.057,0.365-8.096,4.418-12.148      S50.812,11.865,53.868,13.228z" fill="#ED9015"/><g><path d="M52.347,11.441c-0.08-0.051-0.162-0.098-0.244-0.145C52.185,11.343,52.267,11.388,52.347,11.441z" fill="#F26606"/><path d="M54.319,14.876c0.029,0.258,0.043,0.523,0.041,0.799C54.362,15.402,54.349,15.134,54.319,14.876z" fill="#F26606"/><path d="M54.011,13.542c-0.08-0.215-0.174-0.422-0.283-0.619C53.837,13.121,53.931,13.328,54.011,13.542z" fill="#F26606"/><path d="M53.585,12.679c-0.15-0.236-0.318-0.459-0.514-0.658C53.265,12.222,53.435,12.443,53.585,12.679z" fill="#F26606"/><path d="M54.3,14.662c-0.045-0.314-0.113-0.617-0.207-0.906C54.187,14.042,54.255,14.345,54.3,14.662z" fill="#F26606"/><path d="M51.481,11.013c-0.07-0.027-0.137-0.059-0.209-0.082C51.345,10.955,51.411,10.986,51.481,11.013z" fill="#F26606"/><path d="M34.731,25.113c0.004,0,0.008-0.002,0.012-0.002c-0.002,0.055-0.002,0.111-0.002,0.166       C34.741,25.222,34.729,25.169,34.731,25.113z" fill="#F26606"/><path d="M49.187,10.667c0-0.002,0-0.006,0-0.01c0.057-0.002,0.107,0.008,0.164,0.008       C49.294,10.666,49.241,10.667,49.187,10.667z" fill="#F26606"/><path d="M53.005,11.955c0.008,0.008,0.02,0.014,0.031,0.023c0,0.002,0.002,0.006,0.004,0.006       C53.028,11.974,53.015,11.966,53.005,11.955z" fill="#F26606"/><path d="M50.362,10.724c-0.07-0.01-0.143-0.014-0.215-0.02C50.22,10.71,50.292,10.714,50.362,10.724z" fill="#F26606"/><path d="M34.8,26.289c-0.012-0.07-0.014-0.145-0.021-0.217C34.786,26.144,34.79,26.218,34.8,26.289z" fill="#F26606"/><path d="M35.087,27.408c-0.025-0.07-0.059-0.139-0.082-0.213C35.028,27.269,35.062,27.337,35.087,27.408z" fill="#F26606"/><path d="M36.06,28.966c-0.004-0.002-0.004-0.004-0.008-0.006c-0.008-0.01-0.014-0.021-0.021-0.031       C36.038,28.941,36.048,28.955,36.06,28.966z" fill="#F26606"/><path d="M35.515,28.271c-0.053-0.078-0.098-0.158-0.145-0.242C35.417,28.111,35.464,28.193,35.515,28.271z" fill="#F26606"/><path d="M36.095,28.996c0.201,0.197,0.424,0.365,0.658,0.516C36.519,29.361,36.296,29.193,36.095,28.996z" fill="#F26606"/><path d="M37.829,30.019c0.289,0.092,0.59,0.162,0.906,0.209C38.419,30.181,38.118,30.111,37.829,30.019z" fill="#F26606"/><path d="M39.749,30.287c-0.275,0.002-0.541-0.014-0.801-0.041C39.208,30.273,39.474,30.289,39.749,30.287z" fill="#F26606"/><path d="M36.997,29.654c0.195,0.109,0.404,0.205,0.619,0.283C37.401,29.859,37.192,29.763,36.997,29.654z" fill="#F26606"/><path d="M44.782,20.708c3.055-3.057,6.668-4.783,9.574-4.869c-0.086,2.906-1.814,6.518-4.869,9.574       c-3.055,3.055-6.668,4.781-9.574,4.867C39.999,27.376,41.726,23.763,44.782,20.708z" fill="#F26606"/><path d="M51.069,16.541c-0.777,2.102-2.191,4.311-4.166,6.287c-1.979,1.979-4.188,3.387-6.289,4.168       c0.781-2.102,2.189-4.311,4.168-6.287C46.759,18.732,48.968,17.32,51.069,16.541z" fill="#DB4D07"/></g></g></g><path d="M41.479,28.183c0,2.199-1.783,3.979-3.98,3.979l0,0c-2.197,0.002-3.977-1.779-3.977-3.977v-12.01    c0-2.197,1.779-3.977,3.977-3.979l0,0c2.197,0,3.98,1.781,3.979,3.979L41.479,28.183z" fill="#EAB818"/><path d="M37.499,16.306c-2.197-0.002-3.977,1.781-3.977,3.979v7.9c0,2.197,1.779,3.979,3.977,3.977    c2.197,0,3.98-1.779,3.98-3.979l-0.002-7.898C41.479,18.085,39.696,16.304,37.499,16.306z" fill="#ED9015"/></g><g><rect fill="#E83862" height="10.965" width="52.887" x="11.056" y="23.246"/><rect fill="#BC2A54" height="7.127" width="52.887" x="11.056" y="27.083"/><rect fill="#EAB818" height="10.965" width="13.068" x="30.966" y="23.246"/><rect fill="#ED9015" height="7.215" width="13.068" x="30.966" y="26.996"/></g><g><rect fill="#BC2A54" height="30.197" width="42.682" x="16.159" y="34.21"/><polygon fill="#AA1F4D" points="16.159,34.21 58.841,64.408 58.841,34.21   "/></g><g><circle cx="23.5" cy="40.705" fill="#E83862" r="2.151"/><circle cx="32.832" cy="40.705" fill="#E83862" r="2.151"/><circle cx="42.166" cy="40.705" fill="#E83862" r="2.151"/><circle cx="51.5" cy="40.705" fill="#E83862" r="2.151"/></g><g><circle cx="28.166" cy="48.591" fill="#E83862" r="2.151"/><circle cx="37.5" cy="48.591" fill="#E83862" r="2.151"/><circle cx="46.832" cy="48.591" fill="#E83862" r="2.151"/></g><g><circle cx="23.5" cy="56.48" fill="#E83862" r="2.151"/><circle cx="32.832" cy="56.48" fill="#E83862" r="2.151"/><circle cx="42.166" cy="56.48" fill="#E83862" r="2.151"/><circle cx="51.5" cy="56.48" fill="#E83862" r="2.151"/></g><rect fill="#EAB818" height="30.197" width="8.166" x="33.417" y="34.21"/><polygon fill="#F26606" points="41.583,52.199 41.583,34.21 33.417,34.21 33.417,46.419  "/></g></svg>